<svg width="601" height="591" viewBox="0 0 601 591" fill="none" xmlns="http://www.w3.org/2000/svg">
<path d="M166.125 2.03431C125.197 8.18047 87.6074 27.497 57.0436 58.4033C28.939 86.5 14.1841 113.719 2.76655 158.498C-0.922183 173.073 -0.922183 220.486 2.76655 236.291C15.0623 288.094 40.0052 327.078 80.0543 356.404C103.592 373.789 118.171 380.637 151.018 389.769C163.49 393.281 168.584 393.457 228.482 393.632H292.596L301.73 388.891C315.079 381.867 325.97 369.75 334.05 353.243C342.657 335.332 347.048 318.649 349.683 292.484C351.791 272.816 353.547 265.968 355.831 268.426C356.534 269.129 357.763 279.665 358.641 292.133C362.681 350.434 386.395 388.364 422.228 393.632C433.821 395.388 432.943 399.778 420.472 402.588C385.692 410.315 358.466 454.743 358.466 503.561C358.466 511.638 357.939 520.067 357.412 522.35C354.953 531.482 352.142 523.931 349.332 499.697C345.994 471.425 340.9 453.338 331.415 437.182C324.565 425.592 311.391 412.773 301.027 407.329C286.623 399.954 279.773 399.603 137.142 400.13L1.01001 400.656V495.483V590.309L208.282 590.836C434.173 591.363 435.051 591.187 464.736 581.353C495.652 571.168 520.77 555.539 543.781 532.535C572.061 504.087 586.816 476.693 598.233 432.09C601.922 417.514 601.922 370.101 598.233 354.297C588.221 311.801 571.534 281.245 543.605 253.5C533.944 243.842 513.568 227.862 504.61 222.769C486.342 212.584 471.587 206.613 448.049 200.116C438.037 197.482 428.376 196.955 371.64 196.955H306.648L297.338 202.048C267.828 218.555 250.966 252.622 247.979 302.142C246.75 324.971 243.588 328.834 241.832 309.869C239.372 281.421 235.508 262.104 228.833 246.124C224.969 236.466 215.132 221.013 208.984 215.042C200.729 206.613 185.095 198.184 175.786 196.955C170.867 196.253 166.652 195.024 166.125 194.321C164.895 192.214 169.989 189.58 178.42 188.175C197.742 184.487 214.957 169.385 225.671 146.206C233.4 129.699 236.386 117.406 240.778 82.8123C241.832 74.0321 243.237 65.7787 243.588 64.3739C245.52 58.7545 247.804 67.1836 247.804 79.4759C247.804 104.236 258.694 142.693 270.463 159.903C281.354 175.531 294.352 184.663 311.918 188.351C327.726 191.863 594.369 191.863 597.18 188.351C598.585 186.77 598.936 160.254 598.76 93.173L598.233 0.278271L390.084 0.102666C224.442 -0.248543 178.772 0.278271 166.125 2.03431Z" fill="white"/>
</svg>
