<svg width="800" height="800" viewBox="0 0 800 800" fill="none" xmlns="http://www.w3.org/2000/svg">
<path d="M733.333 400C733.333 216.333 583.667 66.6667 400 66.6667C216.333 66.6667 66.6667 216.333 66.6667 400C66.6667 496.667 108.333 583.667 174.333 644.667C174.333 645 174.333 645 174 645.333C177.333 648.667 181.333 651.333 184.667 654.333C186.667 656 188.333 657.667 190.333 659C196.333 664 203 668.667 209.333 673.333C211.667 675 213.667 676.333 216 678C222.333 682.333 229 686.333 236 690C238.333 691.333 241 693 243.333 694.333C250 698 257 701.333 264.333 704.333C267 705.667 269.667 707 272.333 708C279.667 711 287 713.667 294.333 716C297 717 299.667 718 302.333 718.667C310.333 721 318.333 723 326.333 725C328.667 725.667 331 726.333 333.667 726.667C343 728.667 352.333 730 362 731C363.333 731 364.667 731.333 366 731.667C377.333 732.667 388.667 733.333 400 733.333C411.333 733.333 422.667 732.667 433.667 731.667C435 731.667 436.333 731.333 437.667 731C447.333 730 456.667 728.667 466 726.667C468.333 726.333 470.667 725.333 473.333 725C481.333 723 489.667 721.333 497.333 718.667C500 717.667 502.667 716.667 505.333 716C512.667 713.333 520.333 711 527.333 708C530 707 532.667 705.667 535.333 704.333C542.333 701.333 549.333 698 556.333 694.333C559 693 561.333 691.333 563.667 690C570.333 686 577 682.333 583.667 678C586 676.667 588 675 590.333 673.333C597 668.667 603.333 664 609.333 659C611.333 657.333 613 655.667 615 654.333C618.667 651.333 622.333 648.333 625.667 645.333C625.667 645 625.667 645 625.333 644.667C691.667 583.667 733.333 496.667 733.333 400ZM564.667 565.667C474.333 505 326.333 505 235.333 565.667C220.667 575.333 208.667 586.667 198.667 599C148 547.667 116.667 477.333 116.667 400C116.667 243.667 243.667 116.667 400 116.667C556.333 116.667 683.333 243.667 683.333 400C683.333 477.333 652 547.667 601.333 599C591.667 586.667 579.333 575.333 564.667 565.667Z" fill="white"/>
<path d="M400 230.99C331 230.99 275 286.99 275 355.99C275 423.657 328 478.657 398.333 480.657C399.333 480.657 400.667 480.657 401.333 480.657C402 480.657 403 480.657 403.667 480.657C404 480.657 404.333 480.657 404.333 480.657C471.667 478.323 524.667 423.657 525 355.99C525 286.99 469 230.99 400 230.99Z" fill="white"/>
</svg>
